<svg xmlns="http://www.w3.org/2000/svg" id="horizon-shadow" viewBox="0 0 300 400" width="300" height="400"><defs><linearGradient id="hzbgf4im8h" x1="0" y1="0" x2="0" y2="1"><stop offset="0" stop-color="#16162E"/><stop offset="1" stop-color="#0B0B1A"/></linearGradient><radialGradient id="hzhalof4im8h" cx=".5" cy=".34" r=".42"><stop offset="0" stop-color="#5CFFE6" stop-opacity=".28"/><stop offset="1" stop-color="#5CFFE6" stop-opacity="0"/></radialGradient><pattern id="hzdotf4im8h" width="8" height="8" patternUnits="userSpaceOnUse"><circle cx="4" cy="4" r="1.6" fill="#00E5C7"/></pattern><linearGradient id="hzfadef4im8h" x1="0" y1="0" x2="0" y2="1"><stop offset=".25" stop-color="#000"/><stop offset="1" stop-color="#fff"/></linearGradient><mask id="hzmf4im8h"><rect width="300" height="400" fill="url(#hzfadef4im8h)"/></mask><filter id="hzgf4im8h" x="-20%" y="-20%" width="140%" height="140%"><feGaussianBlur stdDeviation="2.5" result="b"/><feMerge><feMergeNode in="b"/><feMergeNode in="SourceGraphic"/></feMerge></filter></defs><rect width="300" height="400" fill="url(#hzbgf4im8h)"/><rect width="300" height="400" fill="url(#hzdotf4im8h)" opacity=".16" mask="url(#hzmf4im8h)"/><polygon points="0,262 300,187 300,247 0,322" fill="#00E5C7" opacity=".9"/><rect width="300" height="400" fill="url(#hzhalof4im8h)"/><g transform="matrix(1.25,0,0,1.25,-37.5,-33.75)"><g fill="#00E5C7" transform="translate(5,-4)"><ellipse cx="150" cy="135" rx="48" ry="58"/><rect x="131" y="180" width="38" height="60"/><path d="M37.2,400L42.8,306C46.6,276 74.8,256 112.4,244L131,232L169,232L187.6,244C225.2,256 253.4,276 257.2,306L262.8,400Z"/><path d="M96,150C88,70 212,70 204,150L212,244L184,236L182,120L118,120L116,236L88,244Z"/></g><g fill="none" stroke="#5CFFE6" stroke-opacity=".6" stroke-width="3"><ellipse cx="150" cy="135" rx="48" ry="58"/><rect x="131" y="180" width="38" height="60"/><path d="M37.2,400L42.8,306C46.6,276 74.8,256 112.4,244L131,232L169,232L187.6,244C225.2,256 253.4,276 257.2,306L262.8,400Z"/><path d="M96,150C88,70 212,70 204,150L212,244L184,236L182,120L118,120L116,236L88,244Z"/></g><g fill="#0B0B0F"><ellipse cx="150" cy="135" rx="48" ry="58"/><rect x="131" y="180" width="38" height="60"/><path d="M37.2,400L42.8,306C46.6,276 74.8,256 112.4,244L131,232L169,232L187.6,244C225.2,256 253.4,276 257.2,306L262.8,400Z"/><path d="M96,150C88,70 212,70 204,150L212,244L184,236L182,120L118,120L116,236L88,244Z"/></g><path d="M194,118C204,150 208,200 206,236" fill="none" stroke="#2EC4B6" stroke-width="5" stroke-linecap="round"/><path d="M114,212C114,244 186,244 186,212" fill="none" stroke="#00E5C7" stroke-width="6" stroke-linecap="round" stroke-linejoin="round"/><ellipse cx="112" cy="214" rx="9" ry="12" fill="#00E5C7"/><ellipse cx="188" cy="214" rx="9" ry="12" fill="#00E5C7"/><path d="M200,138Q206,146 200,154" fill="none" stroke="#C9FFF6" stroke-width="2.5" stroke-linecap="round" stroke-linejoin="round"/><g filter="url(#hzgf4im8h)"><path d="M125,133Q132,122 139,133" fill="none" stroke="#5CFFE6" stroke-width="3" stroke-linecap="round" stroke-linejoin="round"/><path d="M161,133Q168,122 175,133" fill="none" stroke="#5CFFE6" stroke-width="3" stroke-linecap="round" stroke-linejoin="round"/><path d="M139,161Q150,176 161,161" fill="none" stroke="#5CFFE6" stroke-width="3" stroke-linecap="round" stroke-linejoin="round"/><path d="M110,107C110.75,111.25 110.75,111.25 115,112C110.75,112.75 110.75,112.75 110,117C109.25,112.75 109.25,112.75 105,112C109.25,111.25 109.25,111.25 110,107Z" fill="#F5F2EA"/><path d="M194,116C194.6,119.4 194.6,119.4 198,120C194.6,120.6 194.6,120.6 194,124C193.4,120.6 193.4,120.6 190,120C193.4,119.4 193.4,119.4 194,116Z" fill="#F5F2EA"/></g></g></svg>