<svg xmlns="http://www.w3.org/2000/svg" id="horizon-shadow" viewBox="0 0 300 400" width="300" height="400"><defs><linearGradient id="hzbga5ori8" x1="0" y1="0" x2="0" y2="1"><stop offset="0" stop-color="#142033"/><stop offset="1" stop-color="#0A111C"/></linearGradient><radialGradient id="hzhaloa5ori8" cx=".5" cy=".34" r=".42"><stop offset="0" stop-color="#8FAEDB" stop-opacity=".28"/><stop offset="1" stop-color="#8FAEDB" stop-opacity="0"/></radialGradient><pattern id="hzdota5ori8" width="8" height="8" patternUnits="userSpaceOnUse"><circle cx="4" cy="4" r="1.6" fill="#6286BA"/></pattern><linearGradient id="hzfadea5ori8" x1="0" y1="0" x2="0" y2="1"><stop offset=".25" stop-color="#000"/><stop offset="1" stop-color="#fff"/></linearGradient><mask id="hzma5ori8"><rect width="300" height="400" fill="url(#hzfadea5ori8)"/></mask><filter id="hzga5ori8" x="-20%" y="-20%" width="140%" height="140%"><feGaussianBlur stdDeviation="2.5" result="b"/><feMerge><feMergeNode in="b"/><feMergeNode in="SourceGraphic"/></feMerge></filter></defs><rect width="300" height="400" fill="url(#hzbga5ori8)"/><rect width="300" height="400" fill="url(#hzdota5ori8)" opacity=".16" mask="url(#hzma5ori8)"/><polygon points="0,262 300,187 300,247 0,322" fill="#6286BA" opacity=".9"/><rect width="300" height="400" fill="url(#hzhaloa5ori8)"/><g transform="matrix(1.25,0,0,1.25,-37.5,-33.75)"><g fill="#6286BA" transform="translate(5,-4)"><ellipse cx="150" cy="135" rx="48" ry="58"/><rect x="131" y="180" width="38" height="60"/><path d="M30.0,400L36.0,306C40.0,276 70.0,256 110.0,244L131,232L169,232L190.0,244C230.0,256 260.0,276 264.0,306L270.0,400Z"/><path d="M96,150C88,70 212,70 204,150L212,244L184,236L182,120L118,120L116,236L88,244Z"/></g><g fill="none" stroke="#8FAEDB" stroke-opacity=".6" stroke-width="3"><ellipse cx="150" cy="135" rx="48" ry="58"/><rect x="131" y="180" width="38" height="60"/><path d="M30.0,400L36.0,306C40.0,276 70.0,256 110.0,244L131,232L169,232L190.0,244C230.0,256 260.0,276 264.0,306L270.0,400Z"/><path d="M96,150C88,70 212,70 204,150L212,244L184,236L182,120L118,120L116,236L88,244Z"/></g><g fill="#0B0B0F"><ellipse cx="150" cy="135" rx="48" ry="58"/><rect x="131" y="180" width="38" height="60"/><path d="M30.0,400L36.0,306C40.0,276 70.0,256 110.0,244L131,232L169,232L190.0,244C230.0,256 260.0,276 264.0,306L270.0,400Z"/><path d="M96,150C88,70 212,70 204,150L212,244L184,236L182,120L118,120L116,236L88,244Z"/></g><path d="M131,242L116,400M169,242L184,400" fill="none" stroke="#8FAEDB" stroke-opacity=".35" stroke-width="2"/><path d="M118,212Q150,234 182,212L186,234Q150,256 114,234Z" fill="#6286BA"/><path d="M120,123L144,123M156,123L180,123M144,126L156,126" fill="none" stroke="#6286BA" stroke-width="3" stroke-linecap="round"/><g filter="url(#hzga5ori8)"><path d="M124,127L140,133L124,134Z" fill="#FF3355"/><path d="M176,127L160,133L176,134Z" fill="#FF3355"/><path d="M120,118L142,126" fill="none" stroke="#FF3355" stroke-width="3" stroke-linecap="round" stroke-linejoin="round"/><path d="M180,118L158,126" fill="none" stroke="#FF3355" stroke-width="3" stroke-linecap="round" stroke-linejoin="round"/><path d="M138,168L143,163L148,168L153,163L158,168L162,164" fill="none" stroke="#FF3355" stroke-width="2.5" stroke-linecap="round" stroke-linejoin="round"/></g></g></svg>